<svg xmlns="http://www.w3.org/2000/svg" viewBox="0 0 64 64" fill="none">
  <rect x="8" y="6" width="48" height="52" rx="8" fill="#0EA5E9"/>
  <path d="M24 16c-3 0-4.5 1.5-4.5 4.5v3c0 2-1 3-3 3 2 0 3 1 3 3v3c0 3 1.5 4.5 4.5 4.5" stroke="#fff" stroke-width="3.5" stroke-linecap="round" stroke-linejoin="round"/>
  <path d="M31 16c3 0 4.5 1.5 4.5 4.5v3c0 2 1 3 3 3-2 0-3 1-3 3v3c0 3-1.5 4.5-4.5 4.5" stroke="#fff" stroke-width="3.5" stroke-linecap="round" stroke-linejoin="round"/>
  <path d="M20 48h24" stroke="#fff" stroke-width="4" stroke-linecap="round"/>
  <path d="M44 27h4m-2 14V27" stroke="#fff" stroke-width="3.5" stroke-linecap="round"/>
</svg>
