<svg xmlns="http://www.w3.org/2000/svg" viewBox="0 0 64 64" fill="none">
  <rect x="8" y="6" width="48" height="52" rx="8" fill="#7C3AED"/>
  <path d="M26 16c-4 0-6 2-6 6v4c0 2.7-1.3 4-4 4 2.7 0 4 1.3 4 4v4c0 4 2 6 6 6" stroke="#fff" stroke-width="4" stroke-linecap="round" stroke-linejoin="round"/>
  <path d="M38 16c4 0 6 2 6 6v4c0 2.7 1.3 4 4 4-2.7 0-4 1.3-4 4v4c0 4-2 6-6 6" stroke="#fff" stroke-width="4" stroke-linecap="round" stroke-linejoin="round"/>
  <circle cx="32" cy="26" r="2.5" fill="#fff"/>
  <circle cx="32" cy="38" r="2.5" fill="#fff"/>
</svg>
